<svg width="170" height="42" viewBox="0 0 170 42" fill="none" xmlns="http://www.w3.org/2000/svg">
<g clip-path="url(#clip0_16_17)">
<path d="M88 0H118C123.523 0 128 4.47715 128 10C128 15.5228 123.523 20 118 20H88V0Z" fill="black"/>
<path d="M130 0H150C161.046 0 170 8.9543 170 20V22C170 33.0457 161.046 42 150 42H130V0Z" fill="black"/>
<path d="M88 22H118C123.523 22 128 26.4772 128 32V42H88V22Z" fill="black"/>
<path d="M66 0C77.0457 -1.16393e-07 86 8.95431 86 20H68C67.4477 20 67 20.4477 67 21C67 21.5523 67.4477 22 68 22H86C86 33.0457 77.0457 42 66 42H64C52.9543 42 44 33.0457 44 22V20C44 8.95431 52.9543 9.65645e-07 64 0H66Z" fill="black"/>
<path d="M22 0C33.0457 -1.16393e-07 42 8.95431 42 20H24C23.4477 20 23 20.4477 23 21C23 21.5523 23.4477 22 24 22H42C42 33.0457 33.0457 42 22 42H20C8.95431 42 9.65646e-07 33.0457 0 22V20C-4.35453e-07 8.95431 8.95431 9.65645e-07 20 0H22Z" fill="black"/>
</g>
<defs>
<clipPath id="clip0_16_17">
<rect width="170" height="42" fill="white"/>
</clipPath>
</defs>
</svg>
